<?xml version="1.0" standalone="no"?>
<!DOCTYPE svg PUBLIC "-//W3C//DTD SVG 20010904//EN"
 "http://www.w3.org/TR/2001/REC-SVG-20010904/DTD/svg10.dtd">
<svg version="1.0" xmlns="http://www.w3.org/2000/svg"
 width="1500.000000pt" height="1500.000000pt" viewBox="0 0 1500.000000 1500.000000"
 preserveAspectRatio="xMidYMid meet">

<g transform="translate(0.000000,1500.000000) scale(0.100000,-0.100000)"
fill="#000000" stroke="none">
<path d="M7365 14294 c-246 -25 -392 -55 -539 -110 -108 -41 -149 -63 -601
-326 -231 -135 -463 -270 -515 -300 -52 -30 -221 -128 -375 -218 -837 -487
-1029 -599 -1117 -649 -54 -31 -98 -58 -98 -61 0 -3 94 -59 208 -124 114 -65
261 -150 327 -189 66 -38 165 -95 220 -127 55 -32 271 -157 480 -278 209 -121
396 -228 415 -240 935 -540 929 -537 1045 -585 372 -154 907 -167 1314 -30
119 39 196 76 366 176 66 39 145 84 175 102 30 17 197 114 370 215 173 101
356 207 405 235 50 29 173 101 275 160 102 59 210 122 240 140 30 17 197 114
370 215 173 101 370 215 437 254 68 39 123 73 123 76 0 3 -44 30 -98 61 -53
31 -182 105 -287 166 -104 60 -282 163 -395 228 -113 65 -475 274 -805 465
-1055 610 -1019 590 -1153 639 -97 36 -271 77 -382 91 -94 12 -343 20 -405 14z"/>
<path d="M3847 11276 c-11 -1427 -9 -2125 8 -2241 58 -414 321 -880 655 -1166
108 -92 73 -71 1010 -612 58 -33 141 -81 185 -107 44 -26 188 -109 320 -185
132 -76 276 -159 320 -185 282 -166 887 -511 890 -508 3 2 5 681 5 1508 1
1363 0 1515 -15 1610 -71 438 -351 910 -708 1193 -57 45 -485 296 -1857 1088
-107 62 -265 153 -350 202 -85 49 -223 129 -306 177 l-151 87 -6 -861z"/>
<path d="M11045 12071 c-55 -31 -158 -91 -230 -133 -184 -107 -1564 -904
-1845 -1066 -434 -249 -468 -272 -602 -400 -165 -158 -297 -340 -408 -566 -79
-162 -121 -275 -158 -431 l-26 -110 -4 -1205 c-2 -663 0 -1359 3 -1548 l7
-342 42 23 c57 32 1076 620 1156 667 36 21 270 156 520 300 250 144 534 307
630 363 96 55 202 119 235 141 151 100 287 231 415 401 217 289 368 661 388
960 4 55 6 754 4 1553 -2 1150 -5 1452 -15 1451 -6 0 -57 -26 -112 -58z"/>
<path d="M6481 5907 c-37 -18 -60 -56 -71 -116 -11 -58 -15 -2605 -4 -2658 5
-26 33 -48 187 -151 324 -214 434 -272 524 -272 69 0 107 22 133 75 20 41 20
66 20 1309 l0 1267 -21 42 c-54 106 -267 266 -574 431 -88 47 -162 86 -165 86
-3 0 -16 -6 -29 -13z"/>
<path d="M8425 5869 c-202 -101 -334 -182 -507 -312 -98 -73 -110 -85 -130
-136 l-23 -56 -3 -1403 c-2 -1254 -1 -1406 13 -1433 20 -37 108 -103 223 -165
48 -26 107 -61 132 -79 81 -58 174 -111 244 -139 122 -49 207 -26 238 63 10
29 13 397 13 1821 0 1679 -1 1787 -17 1817 -21 38 -55 63 -83 62 -11 0 -56
-18 -100 -40z"/>
<path d="M5819 4483 c-173 -108 -341 -208 -375 -223 -158 -72 -283 -182 -326
-289 -23 -55 -23 -64 -26 -525 -2 -281 1 -473 6 -478 6 -6 34 10 73 42 127
102 764 510 948 606 53 27 116 70 143 97 l49 47 -3 348 c-4 329 -5 351 -27
415 -25 78 -70 133 -117 146 -30 8 -52 -4 -345 -186z"/>
<path d="M10220 4648 c-51 -14 -88 -44 -113 -91 -21 -41 -22 -52 -25 -407 -2
-273 0 -370 9 -387 29 -53 182 -123 269 -123 66 0 99 13 230 93 144 87 240
163 282 225 46 67 51 150 14 226 -70 143 -505 478 -616 475 -8 -1 -31 -5 -50
-11z"/>
<path d="M3124 4611 c-23 -10 -51 -33 -64 -51 -51 -71 -53 -96 -58 -534 -2
-269 0 -412 7 -419 7 -7 25 4 58 33 56 50 505 349 608 405 107 58 292 172 365
223 80 57 177 148 196 184 33 63 7 121 -68 154 -40 18 -80 19 -523 22 -452 2
-482 1 -521 -17z"/>
<path d="M9755 4464 c-132 -85 -280 -174 -330 -198 -163 -78 -252 -163 -290
-275 -13 -41 -15 -119 -13 -597 3 -526 4 -551 23 -589 13 -26 33 -46 56 -58
34 -16 42 -17 107 -3 83 17 180 65 283 139 42 30 117 76 167 102 101 54 175
107 206 148 21 28 21 39 27 730 3 386 9 714 13 730 5 15 4 27 0 26 -5 0 -117
-70 -249 -155z"/>
<path d="M3562 3848 c-83 -51 -193 -122 -244 -158 -110 -76 -244 -205 -253
-243 -13 -50 4 -99 48 -140 59 -54 281 -200 561 -366 l238 -142 182 107 c242
142 422 262 496 330 98 92 84 130 -102 264 -181 131 -710 440 -753 440 -12 0
-89 -42 -173 -92z"/>
<path d="M11174 3820 c-26 -10 -172 -106 -919 -602 -635 -421 -811 -535 -874
-567 -22 -12 -41 -25 -41 -29 0 -14 530 -358 690 -447 162 -91 226 -87 388 23
31 22 116 74 187 118 438 265 1087 738 1303 949 45 44 82 88 82 96 0 45 -115
132 -385 294 -262 157 -299 175 -359 174 -28 0 -61 -4 -72 -9z"/>
<path d="M5676 3209 c-388 -220 -553 -363 -531 -459 19 -82 3 -69 405 -322
369 -231 582 -348 635 -348 29 0 98 30 210 93 147 83 637 397 649 416 4 5 -15
19 -41 31 -115 51 -480 263 -905 527 -136 84 -251 153 -255 153 -5 0 -80 -41
-167 -91z"/>
<path d="M4628 3141 c-46 -46 -153 -115 -458 -296 -285 -170 -530 -338 -637
-439 -50 -46 -53 -52 -53 -97 0 -116 77 -131 670 -127 413 3 426 4 465 25 50
26 82 69 95 125 5 25 10 217 10 451 l0 407 -22 -2 c-13 -1 -44 -22 -70 -47z"/>
<path d="M6460 1581 c-142 -27 -259 -113 -320 -234 -40 -81 -53 -154 -48 -272
6 -114 28 -183 84 -258 37 -51 133 -119 193 -138 64 -20 260 -23 331 -5 35 9
66 19 68 21 5 4 -18 95 -24 95 -1 0 -14 -4 -29 -10 -89 -34 -243 -31 -322 7
-108 51 -172 159 -181 304 -12 212 93 358 280 389 69 12 114 9 229 -16 23 -5
27 -1 38 36 7 24 9 46 4 50 -32 29 -214 47 -303 31z"/>
<path d="M7112 1329 c-153 -26 -251 -144 -260 -315 -8 -152 50 -264 168 -326
38 -20 59 -23 145 -23 84 0 107 4 142 23 99 52 155 131 173 245 40 250 -132
435 -368 396z m101 -90 c53 -14 101 -60 127 -121 19 -44 22 -65 18 -138 -3
-71 -9 -95 -31 -133 -37 -62 -78 -90 -144 -95 -67 -6 -104 10 -147 60 -70 82
-83 217 -30 326 27 56 50 76 112 98 46 16 48 16 95 3z"/>
<path d="M7877 1325 c-53 -14 -113 -64 -125 -105 -5 -19 -8 -11 -12 35 l-5 60
-53 3 -52 3 2 -323 3 -323 58 -3 57 -3 0 180 c0 99 5 203 11 231 18 85 80 140
159 140 l40 0 0 54 c0 63 -10 70 -83 51z"/>
<path d="M8322 1321 c-33 -11 -71 -35 -98 -62 l-44 -43 0 52 0 52 -52 0 -53 0
3 -447 c1 -247 5 -454 7 -460 3 -8 23 -13 55 -13 l50 0 0 176 0 176 37 -32
c52 -46 92 -60 170 -60 173 0 293 140 293 339 0 116 -32 201 -102 268 -67 65
-175 87 -266 54z m138 -103 c67 -34 102 -97 108 -196 7 -125 -26 -206 -103
-249 -111 -63 -248 10 -266 141 -21 155 12 252 100 298 65 34 103 35 161 6z"/>
</g>
</svg>
