<svg width="16" height="16" viewBox="0 0 16 16" fill="none" xmlns="http://www.w3.org/2000/svg">
<path d="M1.21942 11.7125C0.504417 8.8525 0.146917 7.42333 0.89775 6.46167C1.64858 5.5 3.12275 5.5 6.07025 5.5H9.92858C12.8769 5.5 14.3502 5.5 15.1011 6.46167C15.8519 7.42333 15.4944 8.85333 14.7794 11.7125C14.3244 13.5317 14.0977 14.4408 13.4194 14.9708C12.7411 15.5 11.8036 15.5 9.92858 15.5H6.07025C4.19525 15.5 3.25775 15.5 2.57942 14.9708C1.90108 14.4408 1.67358 13.5317 1.21942 11.7125Z" stroke="#333333" stroke-width="0.85"/>
<path d="M14.25 5.91658L13.6583 3.74575C13.43 2.90825 13.3158 2.48992 13.0817 2.17409C12.8482 1.86031 12.5311 1.61859 12.1667 1.47659C11.8 1.33325 11.3667 1.33325 10.5 1.33325M1.75 5.91658L2.34167 3.74575C2.57 2.90825 2.68417 2.48992 2.91833 2.17409C3.15181 1.86031 3.46891 1.61859 3.83333 1.47659C4.2 1.33325 4.63333 1.33325 5.5 1.33325" stroke="#333333" stroke-width="0.85"/>
<path d="M5.5 1.33333C5.5 1.11232 5.5878 0.900358 5.74408 0.744077C5.90036 0.587797 6.11232 0.5 6.33333 0.5H9.66667C9.88768 0.5 10.0996 0.587797 10.2559 0.744077C10.4122 0.900358 10.5 1.11232 10.5 1.33333C10.5 1.55435 10.4122 1.76631 10.2559 1.92259C10.0996 2.07887 9.88768 2.16667 9.66667 2.16667H6.33333C6.11232 2.16667 5.90036 2.07887 5.74408 1.92259C5.5878 1.76631 5.5 1.55435 5.5 1.33333Z" stroke="#333333" stroke-width="0.85"/>
</svg>
