<svg width="16" height="17" viewBox="0 0 16 17" fill="none" xmlns="http://www.w3.org/2000/svg">
<path d="M2.36673 1.73066L3.47634 1.18091C3.9814 0.930389 4.56038 0.872234 5.10518 1.0173C5.64998 1.16236 6.12337 1.50073 6.43698 1.96923L7.43808 3.46473C7.70781 3.8676 7.84464 4.34481 7.82937 4.8294C7.81409 5.31399 7.64748 5.78164 7.35291 6.16672L6.282 7.56692C6.26934 7.5846 6.25944 7.6041 6.25266 7.62476C6.16549 7.91911 6.49036 8.61108 7.30899 9.60136C8.23218 10.7174 8.86626 11.113 9.10918 10.9944L10.6914 10.2018C11.1247 9.985 11.615 9.90927 12.0936 9.98518C12.5721 10.0611 13.0149 10.2849 13.3599 10.6251L14.6359 11.8822C15.0364 12.2769 15.2801 12.8036 15.3216 13.3644C15.3631 13.9253 15.1996 14.4821 14.8615 14.9315L14.1142 15.9235C13.8544 16.2688 13.5149 16.5461 13.1247 16.7317C12.7346 16.9174 12.3052 17.0059 11.8734 16.9897C9.30928 16.8928 6.75292 15.2734 4.19271 12.1782C1.63144 9.081 0.519747 6.26257 0.909313 3.72429C0.974516 3.29934 1.14105 2.89633 1.39484 2.54931C1.64863 2.20229 1.98152 1.92158 2.36673 1.73066ZM2.84404 2.69025C2.6129 2.80477 2.41272 2.97324 2.26042 3.18143C2.10811 3.38962 2.00816 3.63141 1.969 3.88638C1.63312 6.07366 2.63355 8.61099 5.01901 11.4952C7.40271 14.3775 9.70506 15.8356 11.9148 15.9185C12.1739 15.9282 12.4314 15.875 12.6655 15.7635C12.8996 15.6521 13.1032 15.4856 13.259 15.2784L14.0057 14.2873C14.1879 14.0453 14.276 13.7455 14.2537 13.4435C14.2315 13.1414 14.1003 12.8578 13.8847 12.6452L12.6086 11.3874C12.4229 11.2042 12.1845 11.0838 11.9269 11.0429C11.6692 11.002 11.4053 11.0427 11.1719 11.1594L9.58579 11.9541C8.70689 12.3859 7.70603 11.7618 6.48397 10.2834C5.44891 9.03268 5.00214 8.07808 5.22622 7.32086C5.26988 7.17342 5.33835 7.03846 5.43162 6.91596L6.50253 5.51576C6.66122 5.3084 6.75099 5.05655 6.75923 4.79557C6.76748 4.53459 6.69379 4.27757 6.54851 4.0606L5.54683 2.56593C5.37796 2.31358 5.123 2.13134 4.82959 2.05322C4.53617 1.97511 4.22435 2.00646 3.95236 2.14143L2.84404 2.69025Z" fill="#333333"/>
</svg>
