<svg width="14" height="16" viewBox="0 0 14 16" fill="none" xmlns="http://www.w3.org/2000/svg">
<path d="M9.08333 3.41667L4.91667 6.33333M9.08333 12.5833L4.91667 9.66667M4.91667 8C4.91667 8.55253 4.69717 9.08244 4.30647 9.47314C3.91577 9.86384 3.38587 10.0833 2.83333 10.0833C2.2808 10.0833 1.75089 9.86384 1.36019 9.47314C0.969493 9.08244 0.75 8.55253 0.75 8C0.75 7.44747 0.969493 6.91756 1.36019 6.52686C1.75089 6.13616 2.2808 5.91667 2.83333 5.91667C3.38587 5.91667 3.91577 6.13616 4.30647 6.52686C4.69717 6.91756 4.91667 7.44747 4.91667 8ZM13.25 13.4167C13.25 13.9692 13.0305 14.4991 12.6398 14.8898C12.2491 15.2805 11.7192 15.5 11.1667 15.5C10.6141 15.5 10.0842 15.2805 9.69353 14.8898C9.30283 14.4991 9.08333 13.9692 9.08333 13.4167C9.08333 12.8641 9.30283 12.3342 9.69353 11.9435C10.0842 11.5528 10.6141 11.3333 11.1667 11.3333C11.7192 11.3333 12.2491 11.5528 12.6398 11.9435C13.0305 12.3342 13.25 12.8641 13.25 13.4167ZM13.25 2.58333C13.25 3.13587 13.0305 3.66577 12.6398 4.05647C12.2491 4.44717 11.7192 4.66667 11.1667 4.66667C10.6141 4.66667 10.0842 4.44717 9.69353 4.05647C9.30283 3.66577 9.08333 3.13587 9.08333 2.58333C9.08333 2.0308 9.30283 1.50089 9.69353 1.11019C10.0842 0.719493 10.6141 0.5 11.1667 0.5C11.7192 0.5 12.2491 0.719493 12.6398 1.11019C13.0305 1.50089 13.25 2.0308 13.25 2.58333Z" stroke="#333333" stroke-width="0.85" stroke-linecap="round" stroke-linejoin="round"/>
</svg>
